HIERARCHY
ROOT Hips
{
	OFFSET 0.000000 97.167313 0.000000
	CHANNELS 6 Xposition Yposition Zposition Xrotation Yrotation Zrotation
	JOINT Spine
	{
		OFFSET 0.000000 13.784798 0.064400
		CHANNELS 3 Xrotation Yrotation Zrotation
		JOINT Spine1
		{
			OFFSET 0.000000 12.037903 0.404700
			CHANNELS 3 Xrotation Yrotation Zrotation
			JOINT Spine2
			{
				OFFSET 0.000000 17.795601 0.420200
				CHANNELS 3 Xrotation Yrotation Zrotation
				JOINT Neck
				{
					OFFSET 0.000000 39.131302 11.954600
					CHANNELS 3 Xrotation Yrotation Zrotation
					JOINT Head
					{
						OFFSET 0.000000 14.456192 15.627699
						CHANNELS 3 Xrotation Yrotation Zrotation
						JOINT HeadTop_End
						{
							OFFSET 0.000000 15.703506 7.603401
							CHANNELS 3 Xrotation Yrotation Zrotation
							End Site
							{
								OFFSET 0.000000 17.447403 0.000000
							}
						}
					}
				}
				JOINT LeftShoulder
				{
					OFFSET 17.399500 24.608795 1.168800
					CHANNELS 3 Xrotation Yrotation Zrotation
					JOINT LeftArm
					{
						OFFSET 18.980635 5.765305 1.818600
						CHANNELS 3 Xrotation Yrotation Zrotation
						JOINT LeftForeArm
						{
							OFFSET 49.290169 0.000000 0.000000
							CHANNELS 3 Xrotation Yrotation Zrotation
							JOINT LeftHand
							{
								OFFSET 31.562012 0.000000 0.000000
								CHANNELS 3 Xrotation Yrotation Zrotation
								JOINT LeftHandThumb1
								{
									OFFSET 6.133995 -4.388519 7.076070
									CHANNELS 3 Xrotation Yrotation Zrotation
									JOINT LeftHandThumb2
									{
										OFFSET 6.037666 -3.485840 3.485847
										CHANNELS 3 Xrotation Yrotation Zrotation
										JOINT LeftHandThumb3
										{
											OFFSET 6.496506 -3.750763 3.750761
											CHANNELS 3 Xrotation Yrotation Zrotation
											JOINT LeftHandThumb4
											{
												OFFSET 5.616882 -3.242905 3.242910
												CHANNELS 3 Xrotation Yrotation Zrotation
												End Site
												{
													OFFSET -1.254608 7.132141 0.375429
												}
											}
										}
									}
								}
								JOINT LeftHandPinky1
								{
									OFFSET 18.920792 -0.453171 -11.426712
									CHANNELS 3 Xrotation Yrotation Zrotation
									JOINT LeftHandPinky2
									{
										OFFSET 4.919586 0.000000 0.000000
										CHANNELS 3 Xrotation Yrotation Zrotation
										JOINT LeftHandPinky3
										{
											OFFSET 5.233047 0.000000 0.000000
											CHANNELS 3 Xrotation Yrotation Zrotation
											JOINT LeftHandPinky4
											{
												OFFSET 5.571716 0.000000 0.000000
												CHANNELS 3 Xrotation Yrotation Zrotation
												End Site
												{
													OFFSET -3.459808 4.342407 -0.466164
												}
											}
										}
									}
								}
								JOINT LeftHandRing1
								{
									OFFSET 22.726120 -0.094986 -6.500475
									CHANNELS 3 Xrotation Yrotation Zrotation
									JOINT LeftHandRing2
									{
										OFFSET 6.408615 0.000000 0.000000
										CHANNELS 3 Xrotation Yrotation Zrotation
										JOINT LeftHandRing3
										{
											OFFSET 6.150223 0.000000 0.000000
											CHANNELS 3 Xrotation Yrotation Zrotation
											JOINT LeftHandRing4
											{
												OFFSET 6.145386 0.000000 0.000000
												CHANNELS 3 Xrotation Yrotation Zrotation
												End Site
												{
													OFFSET -3.671402 4.923981 -0.202372
												}
											}
										}
									}
								}
								JOINT LeftHandMiddle1
								{
									OFFSET 23.373947 0.000000 0.000001
									CHANNELS 3 Xrotation Yrotation Zrotation
									JOINT LeftHandMiddle2
									{
										OFFSET 6.996567 0.000000 0.000000
										CHANNELS 3 Xrotation Yrotation Zrotation
										JOINT LeftHandMiddle3
										{
											OFFSET 7.015945 0.000000 0.000000
											CHANNELS 3 Xrotation Yrotation Zrotation
											JOINT LeftHandMiddle4
											{
												OFFSET 7.721573 0.000000 0.000000
												CHANNELS 3 Xrotation Yrotation Zrotation
												End Site
												{
													OFFSET -4.651108 6.158463 0.251582
												}
											}
										}
									}
								}
								JOINT LeftHandIndex1
								{
									OFFSET 21.310577 -0.490082 6.209344
									CHANNELS 3 Xrotation Yrotation Zrotation
									JOINT LeftHandIndex2
									{
										OFFSET 7.536453 0.000000 0.000000
										CHANNELS 3 Xrotation Yrotation Zrotation
										JOINT LeftHandIndex3
										{
											OFFSET 7.512344 0.000000 0.000000
											CHANNELS 3 Xrotation Yrotation Zrotation
											JOINT LeftHandIndex4
											{
												OFFSET 10.212402 0.000000 0.000001
												CHANNELS 3 Xrotation Yrotation Zrotation
												End Site
												{
													OFFSET -5.180801 8.690506 1.388433
												}
											}
										}
									}
								}
							}
						}
					}
				}
				JOINT RightShoulder
				{
					OFFSET -17.399500 24.608795 1.168800
					CHANNELS 3 Xrotation Yrotation Zrotation
					JOINT RightArm
					{
						OFFSET -18.980635 5.765305 1.818600
						CHANNELS 3 Xrotation Yrotation Zrotation
						JOINT RightForeArm
						{
							OFFSET -49.290169 0.000000 0.000000
							CHANNELS 3 Xrotation Yrotation Zrotation
							JOINT RightHand
							{
								OFFSET -31.562012 0.000000 0.000000
								CHANNELS 3 Xrotation Yrotation Zrotation
								JOINT RightHandThumb1
								{
									OFFSET -6.133995 -4.388519 7.076070
									CHANNELS 3 Xrotation Yrotation Zrotation
									JOINT RightHandThumb2
									{
										OFFSET -6.037666 -3.485840 3.485847
										CHANNELS 3 Xrotation Yrotation Zrotation
										JOINT RightHandThumb3
										{
											OFFSET -6.496506 -3.750763 3.750761
											CHANNELS 3 Xrotation Yrotation Zrotation
											JOINT RightHandThumb4
											{
												OFFSET -5.616882 -3.242905 3.242910
												CHANNELS 3 Xrotation Yrotation Zrotation
												End Site
												{
													OFFSET 1.254608 7.132141 0.375429
												}
											}
										}
									}
								}
								JOINT RightHandIndex1
								{
									OFFSET -21.310577 -0.490082 6.209344
									CHANNELS 3 Xrotation Yrotation Zrotation
									JOINT RightHandIndex2
									{
										OFFSET -7.536453 0.000000 0.000000
										CHANNELS 3 Xrotation Yrotation Zrotation
										JOINT RightHandIndex3
										{
											OFFSET -7.512344 0.000000 0.000000
											CHANNELS 3 Xrotation Yrotation Zrotation
											JOINT RightHandIndex4
											{
												OFFSET -10.212402 0.000000 0.000001
												CHANNELS 3 Xrotation Yrotation Zrotation
												End Site
												{
													OFFSET 5.180801 8.690506 1.388433
												}
											}
										}
									}
								}
								JOINT RightHandMiddle1
								{
									OFFSET -23.373947 0.000000 0.000001
									CHANNELS 3 Xrotation Yrotation Zrotation
									JOINT RightHandMiddle2
									{
										OFFSET -6.996567 0.000000 0.000000
										CHANNELS 3 Xrotation Yrotation Zrotation
										JOINT RightHandMiddle3
										{
											OFFSET -7.015945 0.000000 0.000000
											CHANNELS 3 Xrotation Yrotation Zrotation
											JOINT RightHandMiddle4
											{
												OFFSET -7.721573 0.000000 0.000000
												CHANNELS 3 Xrotation Yrotation Zrotation
												End Site
												{
													OFFSET 4.651108 6.158463 0.251582
												}
											}
										}
									}
								}
								JOINT RightHandRing1
								{
									OFFSET -22.726120 -0.094986 -6.500475
									CHANNELS 3 Xrotation Yrotation Zrotation
									JOINT RightHandRing2
									{
										OFFSET -6.408615 0.000000 0.000000
										CHANNELS 3 Xrotation Yrotation Zrotation
										JOINT RightHandRing3
										{
											OFFSET -6.150223 0.000000 0.000000
											CHANNELS 3 Xrotation Yrotation Zrotation
											JOINT RightHandRing4
											{
												OFFSET -6.145386 0.000000 0.000000
												CHANNELS 3 Xrotation Yrotation Zrotation
												End Site
												{
													OFFSET 3.671402 4.923981 -0.202372
												}
											}
										}
									}
								}
								JOINT RightHandPinky1
								{
									OFFSET -18.920792 -0.453171 -11.426712
									CHANNELS 3 Xrotation Yrotation Zrotation
									JOINT RightHandPinky2
									{
										OFFSET -4.919586 0.000000 0.000000
										CHANNELS 3 Xrotation Yrotation Zrotation
										JOINT RightHandPinky3
										{
											OFFSET -5.233047 0.000000 0.000000
											CHANNELS 3 Xrotation Yrotation Zrotation
											JOINT RightHandPinky4
											{
												OFFSET -5.571716 0.000000 0.000000
												CHANNELS 3 Xrotation Yrotation Zrotation
												End Site
												{
													OFFSET 3.459808 4.342407 -0.466164
												}
											}
										}
									}
								}
							}
						}
					}
				}
			}
		}
	}
	JOINT LeftUpLeg
	{
		OFFSET 19.899099 -7.885101 -3.429500
		CHANNELS 3 Xrotation Yrotation Zrotation
		JOINT LeftLeg
		{
			OFFSET 1.745560 -36.997807 10.304700
			CHANNELS 3 Xrotation Yrotation Zrotation
			JOINT LeftFoot
			{
				OFFSET -1.745558 -29.803308 -13.615400
				CHANNELS 3 Xrotation Yrotation Zrotation
				JOINT LeftToeBase
				{
					OFFSET 1.181900 -18.539904 15.226099
					CHANNELS 3 Xrotation Yrotation Zrotation
					JOINT LeftToe_End
					{
						OFFSET -0.863701 1.402801 16.534700
						CHANNELS 3 Xrotation Yrotation Zrotation
						End Site
						{
							OFFSET 0.000000 16.616566 0.000000
						}
					}
				}
			}
		}
	}
	JOINT RightUpLeg
	{
		OFFSET -19.899099 -7.885101 -3.429500
		CHANNELS 3 Xrotation Yrotation Zrotation
		JOINT RightLeg
		{
			OFFSET -1.745560 -36.997807 10.304700
			CHANNELS 3 Xrotation Yrotation Zrotation
			JOINT RightFoot
			{
				OFFSET 1.745558 -29.803308 -13.615400
				CHANNELS 3 Xrotation Yrotation Zrotation
				JOINT RightToeBase
				{
					OFFSET -1.181900 -18.539904 15.226099
					CHANNELS 3 Xrotation Yrotation Zrotation
					JOINT RightToe_End
					{
						OFFSET 0.863701 1.402801 16.534700
						CHANNELS 3 Xrotation Yrotation Zrotation
						End Site
						{
							OFFSET 0.000000 16.616566 0.000000
						}
					}
				}
			}
		}
	}
}
MOTION
Frames: 6
Frame Time: 0.033333
58.810619 29.264359 31.376503 -23.616928 9.315126 -84.127351 35.172448 -6.812176 -7.643263 5.361905 -2.055149 1.282180 5.379319 -2.224806 1.521325 19.000024 -2.906699 10.309628 30.718598 -9.745651 26.760963 0.000001 0.000001 -0.000000 0.715164 -13.883032 -8.738812 -64.187645 -39.364702 -100.278761 38.052527 -20.016091 40.789285 -1.694425 -15.214675 25.807591 20.708384 -0.650521 -23.239080 1.015576 15.221891 13.671933 -1.067743 10.593891 13.333909 0.000001 0.000002 0.000001 11.261317 23.418904 -28.866630 0.493158 2.272496 -24.851235 0.493191 2.272489 -24.851230 -0.000003 0.000002 -0.000002 4.768265 15.641169 -24.915412 0.399026 2.040789 -22.124248 0.399014 2.040787 -22.124245 -0.000004 0.000001 0.000002 0.482281 9.042219 -19.815815 0.243853 1.607368 -17.252394 0.243850 1.607346 -17.252366 0.000002 -0.000000 0.000004 -2.822717 1.113998 -14.928563 0.116385 1.117164 -11.894432 0.167225 -0.158461 -17.225910 -0.000000 0.000001 -0.000001 0.468490 6.626026 -1.507753 -48.053820 -2.829850 62.669950 -84.673862 124.972613 90.736133 -2.803760 20.087142 -18.685359 3.227305 5.271457 -6.673284 12.674209 -7.377234 -7.436143 61.954809 -0.845952 4.506782 -0.000001 0.000000 -0.000000 -1.423175 8.110413 10.382695 2.011269 -3.836225 59.306478 0.023775 -1.350597 28.528133 -0.000001 -0.000001 0.000001 -3.748877 -2.024753 28.262916 0.778394 -2.790406 31.036981 0.990016 -3.121106 35.149298 0.000000 0.000001 -0.000004 -7.406200 -6.755720 32.585887 -8.974635 -8.729482 30.664162 -9.603675 -7.083645 11.661162 0.000003 -0.000001 -0.000005 1.291556 -8.660020 37.155877 1.081351 -3.245781 36.911480 0.050198 -0.736338 7.603786 -0.000001 0.000001 0.000002 -37.861262 -19.737099 9.777229 306.128997 177.098800 -205.853282 -19.970058 -12.926691 16.197189 -10.809651 -17.919152 1.022065 0.000001 -0.000003 0.000004 -0.561179 -17.898244 25.343951 38.961827 15.248138 -21.835100 17.131364 9.069006 -4.122138 -4.732498 17.148498 5.390664 -0.000001 0.000002 0.000003 
61.447124 31.622711 33.098557 -22.364614 6.174865 -97.564246 27.209811 -2.330499 -4.020394 4.741671 -0.609947 -0.069117 4.744088 -0.623987 -0.039753 20.498704 -1.849045 7.155137 42.325105 -3.405467 30.289748 -0.000000 0.000000 -0.000001 2.014270 -26.366629 -3.153900 -34.603053 -31.095577 -78.895679 37.638492 -32.991685 61.040192 -2.828649 -9.251093 24.398001 20.686302 -0.641605 -23.257332 1.041274 15.362817 13.696682 -1.038546 10.735235 13.354420 -0.000004 -0.000000 -0.000001 11.244629 23.361149 -29.055058 0.500892 2.289096 -25.044851 0.500887 2.289097 -25.044844 -0.000000 -0.000000 -0.000000 4.766082 15.625094 -25.098558 0.405528 2.056689 -22.306042 0.405511 2.056688 -22.306023 -0.000000 0.000000 -0.000000 0.487509 9.056512 -19.977175 0.248393 1.621853 -17.413053 0.248384 1.621848 -17.413069 0.000002 -0.000000 0.000004 -2.809562 1.159967 -15.062292 0.119067 1.129891 -12.031929 0.172089 -0.146566 -17.363365 -0.000000 -0.000002 -0.000001 0.284898 5.168953 -1.498652 -39.077947 1.310032 75.385146 -89.347726 128.541114 91.620253 -4.089707 18.606497 -13.190148 3.227329 5.271471 -6.673297 12.643638 -7.366440 -7.456588 61.278251 -1.359686 -2.478828 0.000001 0.000002 0.000002 -1.369939 8.451345 10.078386 2.014041 -3.838686 59.347883 -0.006796 -1.295145 28.586102 0.000001 0.000000 -0.000001 -3.757933 -2.008082 28.061089 0.778396 -2.790408 31.036984 0.997872 -3.132226 35.293524 0.000001 0.000002 0.000003 -7.220120 -6.637548 32.607579 -8.974633 -8.729484 30.664158 -9.602506 -7.087961 11.701934 0.000001 0.000002 -0.000003 1.228980 -8.611426 37.817258 1.113026 -3.287544 37.466969 0.118837 -1.128959 11.818562 -0.000001 0.000002 0.000004 -38.738350 -29.580624 18.606030 304.053903 175.477546 -202.793262 -11.476413 -11.685044 24.429932 -4.998446 -17.049315 -2.627839 -0.000002 0.000001 -0.000003 -6.038213 -14.939613 32.587061 37.907413 2.247867 -9.879648 14.934676 9.518560 -11.113910 -3.227897 17.236349 5.418818 0.000001 0.000001 0.000003 
63.475471 33.057465 34.068970 -17.292950 8.305304 -106.316143 31.252640 -3.034793 3.909637 4.556496 -1.213683 0.219252 4.550665 -1.159390 0.285731 11.940526 4.346516 -4.910643 45.658404 9.370895 31.948654 -0.000000 0.000000 0.000001 0.652630 -26.060027 -9.940508 -40.107690 -17.712958 -76.055222 35.539899 -52.968902 49.883863 -1.441331 -12.033366 12.420212 20.644146 -0.624569 -23.292198 2.040122 21.107989 14.683028 0.111465 16.496975 14.154820 0.000003 0.000001 -0.000001 11.411226 23.493315 -35.161722 0.769024 2.793266 -31.086844 0.769020 2.793244 -31.086844 -0.000000 0.000002 -0.000002 4.987102 15.973907 -31.177133 0.648662 2.570295 -28.323575 0.648661 2.570269 -28.323567 -0.000000 0.000001 0.000005 0.710786 9.576075 -25.980896 0.445200 2.150833 -23.387118 0.445196 2.150831 -23.387109 0.000001 -0.000000 0.000004 -2.595279 1.862431 -20.970354 0.264065 1.671027 -17.958862 0.363652 0.370998 -23.287962 -0.000001 0.000002 -0.000003 -0.378778 4.348432 -1.486333 -49.858021 16.067605 86.452908 -97.572128 137.055928 95.231490 -4.896017 18.435446 -9.220560 3.227332 5.271464 -6.673290 12.630460 -7.368778 -7.462371 60.211738 -1.922958 -9.730900 0.000003 0.000000 0.000003 -1.363962 8.752819 9.961471 2.018711 -3.842809 59.417646 -0.036762 -1.244449 28.669070 -0.000002 -0.000003 -0.000002 -3.767344 -1.990631 27.851613 0.778398 -2.790407 31.036981 1.006080 -3.143713 35.443242 0.000001 0.000001 -0.000009 -7.027038 -6.514812 32.629699 -8.974639 -8.729481 30.664158 -9.601435 -7.096914 11.797695 0.000002 0.000001 -0.000003 1.161933 -8.563148 38.523059 1.144254 -3.327996 38.008534 0.217820 -1.521085 16.096077 -0.000000 0.000001 0.000008 -32.975040 -37.590718 31.428689 302.264995 180.680893 -202.754425 -4.300489 -8.221988 28.097568 -2.168277 -16.824057 -4.005187 -0.000002 0.000000 0.000000 -8.227631 -13.229585 40.581193 38.197870 -0.230023 -6.960870 14.166127 9.313005 -14.559187 -1.476374 19.586712 3.973021 0.000000 0.000004 0.000000 
66.888397 34.460796 34.444572 -17.724015 6.373415 -105.443634 32.075145 -4.525418 3.216478 2.938916 -1.473155 -0.579565 2.944271 -1.395593 -0.527222 11.477647 9.984136 -11.864117 36.968624 16.932763 38.266657 0.000000 -0.000000 0.000003 -1.248224 -23.706647 -20.697708 -47.862503 -25.243522 -75.221611 19.214838 -49.194960 31.376475 -2.779429 -10.473408 25.909650 20.575402 -0.596692 -23.349126 3.440593 30.503249 16.314807 1.809293 25.924709 15.410751 0.000001 -0.000003 0.000003 11.959395 24.004297 -45.236674 1.316501 3.547252 -40.961792 1.316505 3.547253 -40.961819 -0.000001 -0.000001 -0.000002 5.515507 16.635629 -41.140630 1.157385 3.345487 -38.157955 1.157379 3.345476 -38.157934 -0.000001 0.000001 0.000002 1.190743 10.366126 -35.806573 0.881671 2.961680 -33.149172 0.881656 2.961690 -33.149145 -0.000000 -0.000001 0.000008 -2.153995 2.778760 -30.648165 0.618442 2.513490 -27.642332 0.788177 1.165199 -32.965396 -0.000000 -0.000000 -0.000001 0.863162 13.787684 -1.540746 -60.273831 17.116427 84.443609 -104.739448 144.299071 102.429799 -2.102347 21.688818 -21.001071 3.227333 5.271456 -6.673296 12.663172 -7.476258 -7.411397 58.730666 -2.460356 -17.140980 0.000000 -0.000001 0.000002 -1.393060 9.026070 9.975822 2.026127 -3.849308 59.527940 -0.065051 -1.202823 28.795640 -0.000000 -0.000001 -0.000001 -3.777070 -1.972440 27.635277 0.778391 -2.790409 31.036981 1.014577 -3.155589 35.597877 0.000000 0.000001 -0.000009 -6.827793 -6.387970 32.652068 -8.974635 -8.729483 30.664158 -9.598118 -7.110101 11.945199 -0.000001 0.000001 0.000000 1.095819 -8.519834 39.233894 1.174686 -3.366584 38.529555 0.344462 -1.901236 20.335659 -0.000000 -0.000002 0.000002 -35.308823 -35.756515 33.956606 297.778134 182.412523 -204.258146 7.696740 -3.673881 30.392238 -0.657250 -17.107554 -3.437845 0.000000 -0.000000 0.000001 -17.001184 -12.140141 38.918268 38.761115 -1.722408 -6.438945 18.455554 9.883893 -19.492568 -2.671412 20.472549 3.388028 0.000001 -0.000000 0.000002 
69.570213 34.471180 35.187389 -17.915818 4.773399 -105.443613 32.880975 -2.619170 2.767455 2.896432 -0.855988 -0.824072 2.900326 -0.762671 -0.818215 6.437815 12.307452 -14.119850 29.864124 19.152281 42.489490 -0.000001 0.000000 -0.000000 -1.924679 -23.378623 -24.755565 -54.132377 -30.804734 -79.671076 15.383382 -47.996767 23.532507 -2.089192 -8.735628 14.725632 20.531926 -0.579015 -23.385178 4.171187 36.455868 17.404794 2.778562 31.902072 16.201181 -0.000001 -0.000003 -0.000001 12.540842 24.473165 -51.699536 1.727328 3.971611 -47.221155 1.727326 3.971624 -47.221175 0.000000 -0.000000 -0.000001 5.977800 17.091949 -47.480128 1.545501 3.786785 -44.391363 1.545488 3.786769 -44.391377 -0.000001 0.000002 0.000002 1.563566 10.819883 -42.042936 1.227052 3.432123 -39.336210 1.227030 3.432107 -39.336207 0.000000 -0.000001 0.000004 -1.848626 3.210197 -36.792740 0.914471 3.011228 -33.778728 1.123985 1.626663 -39.096518 -0.000001 0.000001 0.000001 1.003135 13.306214 -1.568225 -71.216026 21.172582 81.828057 -108.559942 147.261556 106.868760 -1.175431 21.296660 -25.395501 3.227337 5.271459 -6.673298 12.770402 -7.780903 -7.261152 56.843805 -2.893422 -24.598028 -0.000001 0.000000 0.000001 -1.443493 9.282042 10.065161 2.037061 -3.858870 59.690881 -0.089122 -1.173587 28.984417 0.000002 -0.000001 0.000001 -3.787074 -1.953546 27.412966 0.778395 -2.790413 31.036981 1.023354 -3.167745 35.756775 0.000002 0.000003 -0.000001 -6.623090 -6.257550 32.674618 -8.974636 -8.729479 30.664162 -9.592966 -7.127283 12.140926 -0.000001 0.000001 -0.000003 1.036542 -8.485620 39.910503 1.203820 -3.402907 39.023244 0.493381 -2.258911 24.436395 0.000000 -0.000002 0.000002 -30.632312 -36.141707 40.747768 296.321064 185.947693 -206.470758 10.952817 -1.649881 21.067170 6.415147 -18.117333 -8.560871 -0.000000 -0.000001 0.000000 -24.020894 -10.292045 34.897694 39.399048 -6.972387 -2.319778 22.553998 9.430133 -27.028327 -4.587613 20.520371 3.355868 0.000001 0.000003 0.000001 
70.773712 34.168427 37.117966 -15.872007 2.384978 -104.970876 31.419061 -4.996230 3.901886 3.457283 -1.497385 -0.969795 3.467634 -1.378325 -0.925508 -0.031721 14.773556 -14.370530 29.746444 23.611710 39.347740 0.000001 0.000001 -0.000001 -2.080945 -22.360554 -26.516526 -53.533315 -38.516308 -78.068079 20.618601 -52.446219 29.989988 -1.498281 -14.949471 15.879626 20.518278 -0.573457 -23.396507 4.185222 36.583378 17.429243 2.798311 32.030131 16.218542 -0.000001 0.000005 -0.000001 12.531988 24.457879 -51.861394 1.738536 3.981964 -47.382883 1.738538 3.981989 -47.382870 0.000001 0.000000 -0.000002 5.979954 17.090851 -47.636055 1.555707 3.797151 -44.545671 1.555688 3.797150 -44.545681 -0.000000 -0.000001 0.000002 1.572633 10.829775 -42.185243 1.235493 3.442403 -39.477336 1.235495 3.442391 -39.477332 0.000001 -0.000000 0.000002 -1.830798 3.231898 -36.919204 0.921129 3.021180 -33.905377 1.132029 1.635867 -39.223048 0.000000 0.000003 0.000002 0.712092 11.040980 -1.530250 -77.255204 21.439120 85.217880 -111.361303 148.051795 113.264289 -2.285113 21.161077 -20.508922 3.227329 5.271467 -6.673301 12.981221 -8.375024 -6.967850 54.593227 -3.151227 -31.988993 -0.000001 0.000002 0.000001 -1.500459 9.531771 10.173049 2.052407 -3.872234 59.918640 -0.106072 -1.160195 29.254055 -0.000002 0.000000 0.000002 -3.797314 -1.934058 27.185529 0.778392 -2.790405 31.036977 1.032353 -3.180178 35.919377 0.000000 0.000000 -0.000004 -6.413754 -6.124017 32.697198 -8.974638 -8.729480 30.664162 -9.586000 -7.148175 12.381418 -0.000003 -0.000001 -0.000005 0.990442 -8.464190 40.513629 1.231269 -3.436506 39.482991 0.656550 -2.584986 28.297163 -0.000000 -0.000000 0.000002 -31.768784 -37.413075 44.231721 295.873686 190.240808 -208.223931 14.884405 -0.223751 19.526778 11.228268 -17.956948 -9.876274 0.000000 -0.000000 0.000000 -32.182612 -12.750837 34.418997 46.794285 -8.138522 -2.203374 21.285240 8.217394 -34.384675 -6.090271 18.956292 4.301779 -0.000000 0.000000 -0.000001 
